<svg width="2502" height="720" viewBox="0 0 2502 720" fill="none" xmlns="http://www.w3.org/2000/svg">
<g clip-path="url(#clip0_5169_14612)">
<path d="M2100.8 1259.77C2100.8 1730.01 1720.33 2111.22 1251 2111.22C781.671 2111.22 401.201 1730.01 401.201 1259.77C401.201 789.519 781.671 408.311 1251 408.311C1720.33 408.311 2100.8 789.519 2100.8 1259.77Z" stroke="#E6E6E6" stroke-width="1.73366"/>
<path d="M2248.8 1259.1C2248.8 1810.75 1802.07 2257.94 1251 2257.94C699.931 2257.94 253.2 1810.75 253.2 1259.1C253.2 707.452 699.931 260.255 1251 260.255C1802.07 260.255 2248.8 707.452 2248.8 1259.1Z" stroke="#E6E6E6" stroke-width="1.73366"/>
<path d="M2394.13 1259.3C2394.13 1891.35 1882.33 2403.73 1251 2403.73C619.666 2403.73 107.867 1891.35 107.867 1259.3C107.867 627.246 619.666 114.867 1251 114.867C1882.33 114.867 2394.13 627.246 2394.13 1259.3Z" stroke="#E6E6E6" stroke-width="1.73366"/>
</g>
<defs>
<clipPath id="clip0_5169_14612">
<rect width="2502" height="720" fill="white"/>
</clipPath>
</defs>
</svg>
