<svg width="15" height="15" viewBox="0 0 15 15" fill="none" xmlns="http://www.w3.org/2000/svg">
<path d="M7.16557 10.6078V5.07593H8.29944V10.6078H7.16557ZM7.73251 4.28566C7.50344 4.28566 7.33164 4.22839 7.21711 4.11386C7.10258 3.99933 7.04531 3.83326 7.04531 3.61565C7.04531 3.38658 7.10258 3.22051 7.21711 3.11743C7.33164 3.0029 7.50344 2.94563 7.73251 2.94563C7.91576 2.94563 8.07038 3.0029 8.19636 3.11743C8.3338 3.22051 8.40252 3.38658 8.40252 3.61565C8.40252 3.84471 8.3338 4.01651 8.19636 4.13104C8.07038 4.23412 7.91576 4.28566 7.73251 4.28566ZM7.73251 14.2672C6.75898 14.2672 5.84272 14.0839 4.98373 13.7174C4.12474 13.3509 3.36882 12.847 2.71599 12.2056C2.07461 11.5527 1.57067 10.7968 1.20416 9.93783C0.837658 9.07884 0.654406 8.16258 0.654406 7.18906C0.654406 6.20408 0.837658 5.28782 1.20416 4.44028C1.57067 3.58129 2.07461 2.8311 2.71599 2.18972C3.36882 1.53688 4.12474 1.02721 4.98373 0.660709C5.84272 0.294205 6.75898 0.110953 7.73251 0.110953C8.71749 0.110953 9.63375 0.294205 10.4813 0.660709C11.3403 1.02721 12.0905 1.53688 12.7318 2.18972C13.3847 2.8311 13.8944 3.58129 14.2609 4.44028C14.6274 5.28782 14.8106 6.20408 14.8106 7.18906C14.8106 8.16258 14.6274 9.07884 14.2609 9.93783C13.8944 10.7968 13.3847 11.5527 12.7318 12.2056C12.0905 12.847 11.3403 13.3509 10.4813 13.7174C9.63375 14.0839 8.71749 14.2672 7.73251 14.2672ZM7.73251 13.3051C8.58005 13.3051 9.37032 13.1505 10.1033 12.8412C10.8478 12.5205 11.5006 12.0796 12.0618 11.5184C12.623 10.9572 13.0583 10.3101 13.3675 9.57706C13.6882 8.8326 13.8485 8.0366 13.8485 7.18906C13.8485 6.34152 13.6882 5.55124 13.3675 4.81823C13.0583 4.07377 12.623 3.42094 12.0618 2.85973C11.5006 2.29852 10.8478 1.8633 10.1033 1.55406C9.37032 1.23337 8.58005 1.07303 7.73251 1.07303C6.88497 1.07303 6.08897 1.23337 5.34451 1.55406C4.6115 1.8633 3.96439 2.29852 3.40318 2.85973C2.84197 3.42094 2.40102 4.07377 2.08033 4.81823C1.7711 5.55124 1.61648 6.34152 1.61648 7.18906C1.61648 8.0366 1.7711 8.8326 2.08033 9.57706C2.40102 10.3101 2.84197 10.9572 3.40318 11.5184C3.96439 12.0796 4.6115 12.5205 5.34451 12.8412C6.08897 13.1505 6.88497 13.3051 7.73251 13.3051Z" fill="black"/>
</svg>
