<svg width="11" height="11" viewBox="0 0 11 11" fill="none" xmlns="http://www.w3.org/2000/svg">
<path d="M5.929 7.946V3.76H5.071V7.946H5.929ZM5.5 3.162C5.67333 3.162 5.80333 3.11867 5.89 3.032C5.97667 2.94533 6.02 2.81967 6.02 2.655C6.02 2.48167 5.97667 2.356 5.89 2.278C5.80333 2.19133 5.67333 2.148 5.5 2.148C5.36133 2.148 5.24433 2.19133 5.149 2.278C5.045 2.356 4.993 2.48167 4.993 2.655C4.993 2.82833 5.045 2.95833 5.149 3.045C5.24433 3.123 5.36133 3.162 5.5 3.162ZM5.5 10.715C6.23667 10.715 6.93 10.5763 7.58 10.299C8.23 10.0217 8.802 9.64033 9.296 9.155C9.78133 8.661 10.1627 8.089 10.44 7.439C10.7173 6.789 10.856 6.09567 10.856 5.359C10.856 4.61367 10.7173 3.92033 10.44 3.279C10.1627 2.629 9.78133 2.06133 9.296 1.576C8.802 1.082 8.23 0.696333 7.58 0.418999C6.93 0.141666 6.23667 0.00299931 5.5 0.00299931C4.75467 0.00299931 4.06133 0.141666 3.42 0.418999C2.77 0.696333 2.20233 1.082 1.717 1.576C1.223 2.06133 0.837333 2.629 0.559999 3.279C0.282666 3.92033 0.143999 4.61367 0.143999 5.359C0.143999 6.09567 0.282666 6.789 0.559999 7.439C0.837333 8.089 1.223 8.661 1.717 9.155C2.20233 9.64033 2.77 10.0217 3.42 10.299C4.06133 10.5763 4.75467 10.715 5.5 10.715ZM5.5 9.987C4.85867 9.987 4.26067 9.87 3.706 9.636C3.14267 9.39333 2.64867 9.05967 2.224 8.635C1.79933 8.21033 1.47 7.72067 1.236 7.166C0.993332 6.60267 0.871999 6.00033 0.871999 5.359C0.871999 4.71767 0.993332 4.11967 1.236 3.565C1.47 3.00167 1.79933 2.50767 2.224 2.083C2.64867 1.65833 3.14267 1.329 3.706 1.095C4.26067 0.852333 4.85867 0.730999 5.5 0.730999C6.14133 0.730999 6.74367 0.852333 7.307 1.095C7.86167 1.329 8.35133 1.65833 8.776 2.083C9.20067 2.50767 9.53433 3.00167 9.777 3.565C10.011 4.11967 10.128 4.71767 10.128 5.359C10.128 6.00033 10.011 6.60267 9.777 7.166C9.53433 7.72067 9.20067 8.21033 8.776 8.635C8.35133 9.05967 7.86167 9.39333 7.307 9.636C6.74367 9.87 6.14133 9.987 5.5 9.987Z" fill="black"/>
</svg>
