<svg width="9" height="12" viewBox="0 0 9 12" fill="none" xmlns="http://www.w3.org/2000/svg">
<path d="M8.42792 9.474V11.042H1.63792L1.32992 10.034C1.74992 9.62333 2.05792 9.208 2.25392 8.788C2.44992 8.35867 2.54792 7.82667 2.54792 7.192C2.54792 7.12667 2.53859 7.01933 2.51992 6.87H0.965922V5.526H2.12792C1.94126 4.89133 1.84792 4.31733 1.84792 3.804C1.84792 3.16933 1.98326 2.62333 2.25392 2.166C2.53392 1.69933 2.92126 1.34467 3.41592 1.102C3.91059 0.859333 4.47992 0.737999 5.12392 0.737999C6.15992 0.737999 6.94859 1.02733 7.48992 1.606C8.04059 2.17533 8.32992 2.908 8.35792 3.804H6.55192C6.54259 3.356 6.42592 3.006 6.20192 2.754C5.97792 2.49267 5.62792 2.362 5.15192 2.362C4.71326 2.362 4.36326 2.49267 4.10192 2.754C3.84992 3.01533 3.72392 3.41667 3.72392 3.958C3.72392 4.20067 3.74726 4.44333 3.79392 4.686C3.84992 4.91933 3.92926 5.19933 4.03192 5.526H6.66392V6.87H4.38192C4.40059 7.01933 4.40992 7.13133 4.40992 7.206C4.40992 7.60733 4.33059 8.00867 4.17192 8.41C4.02259 8.802 3.78926 9.15667 3.47192 9.474H8.42792Z" fill="#1C1E23"/>
</svg>
